<svg xmlns="http://www.w3.org/2000/svg" width="67.5" height="52.4" viewBox="0 0 67.5 52.4">
  <path id="Icon_awesome-twitter" data-name="Icon awesome-twitter" d="M60.562,16.44c.043.573.043,1.146.043,1.719,0,17.48-13.92,37.622-39.361,37.622A40.418,40.418,0,0,1,0,49.845a29.929,29.929,0,0,0,3.341.164,28.53,28.53,0,0,0,17.175-5.649,13.8,13.8,0,0,1-12.935-9.17,18.234,18.234,0,0,0,2.613.2,15.27,15.27,0,0,0,3.641-.45A13.39,13.39,0,0,1,2.741,21.966V21.8a14.422,14.422,0,0,0,6.253,1.678A13.072,13.072,0,0,1,2.827,12.469,12.684,12.684,0,0,1,4.711,5.8,39.951,39.951,0,0,0,33.236,19.633a14.294,14.294,0,0,1-.343-3.029c0-7.287,6.168-13.223,13.834-13.223A14.106,14.106,0,0,1,56.835,7.556a28.015,28.015,0,0,0,8.78-3.193,13.314,13.314,0,0,1-6.082,7.287A28.749,28.749,0,0,0,67.5,9.6a29.058,29.058,0,0,1-6.938,6.836Z" transform="translate(0 -3.381)" fill="#11b6b1"/>
</svg>
