<svg xmlns="http://www.w3.org/2000/svg" width="65.863" height="62.732" viewBox="0 0 65.863 62.732">
  <path id="Icon_awesome-facebook" data-name="Icon awesome-facebook" d="M66.425,32.119C66.425,14.687,51.686.563,33.494.563S.563,14.687.563,32.119c0,15.75,12.042,28.806,27.786,31.175V41.242H19.983V32.119h8.366V25.167c0-7.908,4.913-12.277,12.438-12.277a52.822,52.822,0,0,1,7.372.616v7.762H44.005c-4.09,0-5.366,2.433-5.366,4.928v5.923h9.133l-1.461,9.122H38.639V63.295C54.383,60.925,66.425,47.87,66.425,32.119Z" transform="translate(-0.563 -0.563)" fill="#11b6b1"/>
</svg>
