<svg xmlns="http://www.w3.org/2000/svg" width="70.484" height="71.332" viewBox="0 0 70.484 71.332">
  <path id="Icon_awesome-instagram" data-name="Icon awesome-instagram" d="M35.245,19.615A18.29,18.29,0,1,0,53.312,37.9,18.15,18.15,0,0,0,35.245,19.615Zm0,30.179A11.891,11.891,0,1,1,46.991,37.9a11.84,11.84,0,0,1-11.746,11.89Zm23.02-30.927A4.214,4.214,0,1,1,54.051,14.6,4.23,4.23,0,0,1,58.265,18.867ZM70.231,23.2c-.267-5.714-1.557-10.776-5.692-14.946-4.12-4.17-9.12-5.475-14.765-5.762-5.818-.334-23.256-.334-29.074,0C15.07,2.759,10.07,4.064,5.935,8.234S.525,17.466.242,23.181c-.33,5.889-.33,23.541,0,29.431C.51,58.325,1.8,63.387,5.935,67.557s9.12,5.475,14.765,5.762c5.818.334,23.256.334,29.074,0,5.645-.271,10.645-1.576,14.765-5.762,4.12-4.17,5.409-9.232,5.692-14.946.33-5.889.33-23.525,0-29.415ZM62.715,58.93a11.966,11.966,0,0,1-6.7,6.781c-4.639,1.862-15.646,1.433-20.772,1.433s-16.149.414-20.772-1.433a11.966,11.966,0,0,1-6.7-6.781c-1.84-4.7-1.415-15.837-1.415-21.026S5.95,21.557,7.774,16.877a11.966,11.966,0,0,1,6.7-6.781c4.639-1.862,15.646-1.433,20.772-1.433S51.394,8.25,56.017,10.1a11.966,11.966,0,0,1,6.7,6.781c1.84,4.7,1.415,15.837,1.415,21.026S64.555,54.251,62.715,58.93Z" transform="translate(0.005 -2.238)" fill="#9a0c0c"/>
</svg>
